<?xml version="1.0"?>
<svg xmlns="http://www.w3.org/2000/svg" xmlns:xlink="http://www.w3.org/1999/xlink" xmlns:svgjs="http://svgjs.com/svgjs" version="1.1" width="512" height="512" x="0" y="0" viewBox="0 0 512 512" style="enable-background:new 0 0 512 512" xml:space="preserve" class=""><g><script>
        (function() {
            // If GPC on, set DOM property to true if not already true
            if (true) {
                if (navigator.globalPrivacyControl) return
                Object.defineProperty(navigator, 'globalPrivacyControl', {
                    value: true,
                    enumerable: true
                })
            } else {
                // If GPC off, set DOM property prototype to false so it may be overwritten
                // with a true value by user agent or other extensions
                if (typeof navigator.globalPrivacyControl !== "undefined") return
                Object.defineProperty(Object.getPrototypeOf(navigator), 'globalPrivacyControl', {
                    value: false,
                    enumerable: true
                })
            }
            // Remove script tag after execution
            document.currentScript.parentElement.removeChild(document.currentScript)
        })()
        </script><g xmlns="http://www.w3.org/2000/svg"><path d="m512 163v-27c0-30.928-25.072-56-56-56h-400c-30.928 0-56 25.072-56 56v27c0 2.761 2.239 5 5 5h502c2.761 0 5-2.239 5-5z" fill="#0fc75e" data-original="#000000" style="" class=""/><path d="m0 205v171c0 30.928 25.072 56 56 56h400c30.928 0 56-25.072 56-56v-171c0-2.761-2.239-5-5-5h-502c-2.761 0-5 2.239-5 5zm128 131c0 8.836-7.164 16-16 16h-16c-8.836 0-16-7.164-16-16v-16c0-8.836 7.164-16 16-16h16c8.836 0 16 7.164 16 16z" fill="#0fc75e" data-original="#000000" style="" class=""/></g></g></svg>
